<svg width="305" height="948" viewBox="0 0 305 948" fill="none" xmlns="http://www.w3.org/2000/svg">
<g clip-path="url(#clip0_1_66)" filter="url(#filter0_d_1_66)">
<rect width="300" height="944" transform="translate(0 5)" fill="white" fill-opacity="0.05"/>
<path d="M46.48 48L46.46 39.62L42.34 46.52H40.9L36.78 39.78V48H33.74V34H36.42L41.66 42.7L46.82 34H49.5L49.52 48H46.48ZM63.2178 42.66C63.2178 42.7 63.1978 42.98 63.1578 43.5H55.0178C55.1645 44.1667 55.5111 44.6933 56.0578 45.08C56.6045 45.4667 57.2845 45.66 58.0978 45.66C58.6578 45.66 59.1511 45.58 59.5778 45.42C60.0178 45.2467 60.4245 44.98 60.7978 44.62L62.4578 46.42C61.4445 47.58 59.9645 48.16 58.0178 48.16C56.8045 48.16 55.7311 47.9267 54.7978 47.46C53.8645 46.98 53.1445 46.32 52.6378 45.48C52.1311 44.64 51.8778 43.6867 51.8778 42.62C51.8778 41.5667 52.1245 40.62 52.6178 39.78C53.1245 38.9267 53.8111 38.2667 54.6778 37.8C55.5578 37.32 56.5378 37.08 57.6178 37.08C58.6711 37.08 59.6245 37.3067 60.4778 37.76C61.3311 38.2133 61.9978 38.8667 62.4778 39.72C62.9711 40.56 63.2178 41.54 63.2178 42.66ZM57.6378 39.44C56.9311 39.44 56.3378 39.64 55.8578 40.04C55.3778 40.44 55.0845 40.9867 54.9778 41.68H60.2778C60.1711 41 59.8778 40.46 59.3978 40.06C58.9178 39.6467 58.3311 39.44 57.6378 39.44ZM65.6094 37.24H68.7094V41.44H73.3894V37.24H76.5094V48H73.3894V43.98H68.7094V48H65.6094V37.24ZM89.6761 37.08C90.7694 37.08 91.7494 37.32 92.6161 37.8C93.4828 38.2667 94.1628 38.92 94.6561 39.76C95.1494 40.6 95.3961 41.5533 95.3961 42.62C95.3961 43.6867 95.1494 44.64 94.6561 45.48C94.1628 46.32 93.4828 46.98 92.6161 47.46C91.7494 47.9267 90.7694 48.16 89.6761 48.16C88.7294 48.16 87.8628 47.9867 87.0761 47.64C86.2894 47.28 85.6361 46.78 85.1161 46.14C84.5961 45.4867 84.2494 44.74 84.0761 43.9H82.5961V48H79.4961V37.24H82.5961V41.2H84.0961C84.4028 39.9467 85.0561 38.9467 86.0561 38.2C87.0561 37.4533 88.2628 37.08 89.6761 37.08ZM89.6761 45.6C90.4361 45.6 91.0628 45.3333 91.5561 44.8C92.0628 44.2533 92.3161 43.5267 92.3161 42.62C92.3161 41.7 92.0628 40.9733 91.5561 40.44C91.0628 39.9067 90.4361 39.64 89.6761 39.64C88.9028 39.64 88.2628 39.9067 87.7561 40.44C87.2628 40.9733 87.0161 41.7 87.0161 42.62C87.0161 43.5267 87.2628 44.2533 87.7561 44.8C88.2628 45.3333 88.9028 45.6 89.6761 45.6Z" fill="#1C1C1E"/>
<path d="M63.0021 101.995C62.8703 101.996 62.7396 101.971 62.6175 101.921C62.4954 101.871 62.3844 101.798 62.2907 101.705L47.9722 87.4014L33.6537 101.705C33.4621 101.869 33.2155 101.955 32.9633 101.945C32.7111 101.935 32.4719 101.831 32.2935 101.653C32.115 101.475 32.0105 101.236 32.0007 100.984C31.991 100.732 32.0768 100.486 32.2409 100.295L47.2708 85.2909C47.4586 85.1046 47.7125 85 47.9773 85C48.242 85 48.4959 85.1046 48.6837 85.2909L63.7136 100.295C63.8514 100.435 63.9448 100.613 63.982 100.806C64.0192 100.999 63.9985 101.199 63.9226 101.381C63.8467 101.562 63.7189 101.717 63.5552 101.827C63.3915 101.936 63.1991 101.995 63.0021 101.995V101.995Z" fill="#1C1C1E"/>
<path d="M47.9731 90.7828L35.9492 102.826V114.999C35.9492 115.53 36.1604 116.039 36.5362 116.414C36.912 116.789 37.4217 117 37.9532 117H44.9672V106.997H50.9791V117H57.9931C58.5246 117 59.0343 116.789 59.4101 116.414C59.7859 116.039 59.9971 115.53 59.9971 114.999V102.756L47.9731 90.7828Z" fill="#1C1C1E"/>
<path d="M91.459 96.2005H84.519L84.539 108.001H81.979V94.0005H91.479L91.459 96.2005ZM100.05 97.3205V108.001H97.5504V99.4405H93.5504L93.4504 101.561C93.3838 102.974 93.2504 104.161 93.0504 105.121C92.8638 106.067 92.5371 106.821 92.0704 107.381C91.6171 107.927 90.9904 108.201 90.1904 108.201C89.8171 108.201 89.3571 108.127 88.8104 107.981L88.9304 105.881C89.1171 105.921 89.2771 105.941 89.4104 105.941C89.9171 105.941 90.2971 105.741 90.5504 105.341C90.8038 104.927 90.9638 104.441 91.0304 103.881C91.1104 103.307 91.1771 102.494 91.2304 101.441L91.4104 97.3205H100.05ZM107.397 97.2005C108.971 97.2005 110.171 97.5805 110.997 98.3405C111.837 99.0872 112.257 100.221 112.257 101.741V108.001H109.897V106.701C109.591 107.167 109.151 107.527 108.577 107.781C108.017 108.021 107.337 108.141 106.537 108.141C105.737 108.141 105.037 108.007 104.437 107.741C103.837 107.461 103.371 107.081 103.037 106.601C102.717 106.107 102.557 105.554 102.557 104.941C102.557 103.981 102.911 103.214 103.617 102.641C104.337 102.054 105.464 101.761 106.997 101.761H109.757V101.601C109.757 100.854 109.531 100.281 109.077 99.8805C108.637 99.4805 107.977 99.2805 107.097 99.2805C106.497 99.2805 105.904 99.3739 105.317 99.5605C104.744 99.7472 104.257 100.007 103.857 100.341L102.877 98.5205C103.437 98.0939 104.111 97.7672 104.897 97.5405C105.684 97.3139 106.517 97.2005 107.397 97.2005ZM107.057 106.321C107.684 106.321 108.237 106.181 108.717 105.901C109.211 105.607 109.557 105.194 109.757 104.661V103.421H107.177C105.737 103.421 105.017 103.894 105.017 104.841C105.017 105.294 105.197 105.654 105.557 105.921C105.917 106.187 106.417 106.321 107.057 106.321ZM123.091 102.441C124.411 102.841 125.071 103.694 125.071 105.001C125.071 105.961 124.711 106.701 123.991 107.221C123.271 107.741 122.204 108.001 120.791 108.001H115.351V97.3205H120.571C121.878 97.3205 122.898 97.5605 123.631 98.0405C124.364 98.5205 124.731 99.2005 124.731 100.081C124.731 100.627 124.584 101.101 124.291 101.501C124.011 101.901 123.611 102.214 123.091 102.441ZM117.731 101.781H120.351C121.644 101.781 122.291 101.334 122.291 100.441C122.291 99.5739 121.644 99.1405 120.351 99.1405H117.731V101.781ZM120.591 106.181C121.964 106.181 122.651 105.734 122.651 104.841C122.651 104.374 122.491 104.027 122.171 103.801C121.851 103.561 121.351 103.441 120.671 103.441H117.731V106.181H120.591ZM127.734 97.3205H130.234V101.661H135.614V97.3205H138.114V108.001H135.614V103.781H130.234V108.001H127.734V97.3205ZM145.444 97.2005C147.018 97.2005 148.218 97.5805 149.044 98.3405C149.884 99.0872 150.304 100.221 150.304 101.741V108.001H147.944V106.701C147.638 107.167 147.198 107.527 146.624 107.781C146.064 108.021 145.384 108.141 144.584 108.141C143.784 108.141 143.084 108.007 142.484 107.741C141.884 107.461 141.418 107.081 141.084 106.601C140.764 106.107 140.604 105.554 140.604 104.941C140.604 103.981 140.958 103.214 141.664 102.641C142.384 102.054 143.511 101.761 145.044 101.761H147.804V101.601C147.804 100.854 147.578 100.281 147.124 99.8805C146.684 99.4805 146.024 99.2805 145.144 99.2805C144.544 99.2805 143.951 99.3739 143.364 99.5605C142.791 99.7472 142.304 100.007 141.904 100.341L140.924 98.5205C141.484 98.0939 142.158 97.7672 142.944 97.5405C143.731 97.3139 144.564 97.2005 145.444 97.2005ZM145.104 106.321C145.731 106.321 146.284 106.181 146.764 105.901C147.258 105.607 147.604 105.194 147.804 104.661V103.421H145.224C143.784 103.421 143.064 103.894 143.064 104.841C143.064 105.294 143.244 105.654 143.604 105.921C143.964 106.187 144.464 106.321 145.104 106.321ZM162.418 97.3205V108.001H160.178V104.781H157.358L155.178 108.001H152.498L155.018 104.441C154.244 104.174 153.651 103.767 153.238 103.221C152.838 102.661 152.638 101.974 152.638 101.161C152.638 99.9339 153.071 98.9872 153.938 98.3205C154.804 97.6539 155.998 97.3205 157.518 97.3205H162.418ZM157.598 99.4205C155.984 99.4205 155.178 100.027 155.178 101.241C155.178 102.441 155.958 103.041 157.518 103.041H160.178V99.4205H157.598Z" fill="#1C1C1E"/>
<g clip-path="url(#clip1_1_66)">
<path d="M34.4615 229C33.7949 229 33.2179 229.244 32.7308 229.731C32.2436 230.218 32 230.795 32 231.462V241.308C32 241.974 32.2436 242.551 32.7308 243.038C33.2179 243.526 33.7949 243.769 34.4615 243.769H44.3077C44.9744 243.769 45.5513 243.526 46.0385 243.038C46.5256 242.551 46.7692 241.974 46.7692 241.308V231.462C46.7692 230.795 46.5256 230.218 46.0385 229.731C45.5513 229.244 44.9744 229 44.3077 229H34.4615ZM34.4615 231.462H44.3077V241.308H34.4615V231.462ZM51.6923 229C51.0256 229 50.4487 229.244 49.9615 229.731C49.4744 230.218 49.2308 230.795 49.2308 231.462V241.308C49.2308 241.974 49.4744 242.551 49.9615 243.038C50.4487 243.526 51.0256 243.769 51.6923 243.769H61.5385C62.2051 243.769 62.7821 243.526 63.2692 243.038C63.7564 242.551 64 241.974 64 241.308V231.462C64 230.795 63.7564 230.218 63.2692 229.731C62.7821 229.244 62.2051 229 61.5385 229H51.6923ZM34.4615 246.231C33.7949 246.231 33.2179 246.474 32.7308 246.962C32.2436 247.449 32 248.026 32 248.692V258.538C32 259.205 32.2436 259.782 32.7308 260.269C33.2179 260.756 33.7949 261 34.4615 261H44.3077C44.9744 261 45.5513 260.756 46.0385 260.269C46.5256 259.782 46.7692 259.205 46.7692 258.538V248.692C46.7692 248.026 46.5256 247.449 46.0385 246.962C45.5513 246.474 44.9744 246.231 44.3077 246.231H34.4615ZM34.4615 248.692H44.3077V258.538H34.4615V248.692ZM51.6923 246.231C51.0256 246.231 50.4487 246.474 49.9615 246.962C49.4744 247.449 49.2308 248.026 49.2308 248.692V258.538C49.2308 259.205 49.4744 259.782 49.9615 260.269C50.4487 260.756 51.0256 261 51.6923 261H61.5385C62.2051 261 62.7821 260.756 63.2692 260.269C63.7564 259.782 64 259.205 64 258.538V248.692C64 248.026 63.7564 247.449 63.2692 246.962C62.7821 246.474 62.2051 246.231 61.5385 246.231H51.6923ZM51.6923 248.692H61.5385V258.538H51.6923V248.692Z" fill="#1C1C1E"/>
</g>
<path d="M92.12 240.2H87.48V252H84.9V240.2H80.28V238H92.12V240.2ZM97.4959 241.2C99.0693 241.2 100.269 241.58 101.096 242.34C101.936 243.087 102.356 244.22 102.356 245.74V252H99.9959V250.7C99.6893 251.167 99.2493 251.527 98.6759 251.78C98.1159 252.02 97.4359 252.14 96.6359 252.14C95.8359 252.14 95.1359 252.007 94.5359 251.74C93.9359 251.46 93.4693 251.08 93.1359 250.6C92.8159 250.107 92.6559 249.553 92.6559 248.94C92.6559 247.98 93.0093 247.213 93.7159 246.64C94.4359 246.053 95.5626 245.76 97.0959 245.76H99.8559V245.6C99.8559 244.853 99.6293 244.28 99.1759 243.88C98.7359 243.48 98.0759 243.28 97.1959 243.28C96.5959 243.28 96.0026 243.373 95.4159 243.56C94.8426 243.747 94.3559 244.007 93.9559 244.34L92.9759 242.52C93.5359 242.093 94.2093 241.767 94.9959 241.54C95.7826 241.313 96.6159 241.2 97.4959 241.2ZM97.1559 250.32C97.7826 250.32 98.3359 250.18 98.8159 249.9C99.3093 249.607 99.6559 249.193 99.8559 248.66V247.42H97.2759C95.8359 247.42 95.1159 247.893 95.1159 248.84C95.1159 249.293 95.2959 249.653 95.6559 249.92C96.0159 250.187 96.5159 250.32 97.1559 250.32ZM111.23 241.84C112.243 241.84 113.136 242.06 113.91 242.5C114.683 242.927 115.283 243.527 115.71 244.3C116.15 245.073 116.37 245.96 116.37 246.96C116.37 247.987 116.13 248.9 115.65 249.7C115.17 250.487 114.496 251.1 113.63 251.54C112.763 251.98 111.776 252.2 110.67 252.2C108.816 252.2 107.383 251.587 106.37 250.36C105.356 249.133 104.85 247.367 104.85 245.06C104.85 242.913 105.31 241.213 106.23 239.96C107.15 238.707 108.556 237.88 110.45 237.48L115.41 236.42L115.77 238.66L111.27 239.58C109.976 239.847 109.01 240.3 108.37 240.94C107.73 241.58 107.356 242.48 107.25 243.64C107.73 243.067 108.31 242.627 108.99 242.32C109.67 242 110.416 241.84 111.23 241.84ZM110.73 250.18C111.65 250.18 112.39 249.887 112.95 249.3C113.523 248.7 113.81 247.94 113.81 247.02C113.81 246.1 113.523 245.36 112.95 244.8C112.39 244.24 111.65 243.96 110.73 243.96C109.796 243.96 109.043 244.24 108.47 244.8C107.896 245.36 107.61 246.1 107.61 247.02C107.61 247.953 107.896 248.713 108.47 249.3C109.056 249.887 109.81 250.18 110.73 250.18ZM128.352 241.32V252H125.852V243.44H121.852L121.752 245.56C121.686 246.973 121.552 248.16 121.352 249.12C121.166 250.067 120.839 250.82 120.372 251.38C119.919 251.927 119.292 252.2 118.492 252.2C118.119 252.2 117.659 252.127 117.112 251.98L117.232 249.88C117.419 249.92 117.579 249.94 117.712 249.94C118.219 249.94 118.599 249.74 118.852 249.34C119.106 248.927 119.266 248.44 119.332 247.88C119.412 247.307 119.479 246.493 119.532 245.44L119.712 241.32H128.352ZM131.719 241.32H134.219V248.36L140.119 241.32H142.399V252H139.899V244.96L134.019 252H131.719V241.32ZM157.482 249.88V254.46H155.142V252H145.762V241.32H148.262V249.88H153.362V241.32H155.862V249.88H157.482ZM164.907 244.84C166.267 244.84 167.307 245.147 168.027 245.76C168.747 246.373 169.107 247.24 169.107 248.36C169.107 249.533 168.707 250.44 167.907 251.08C167.121 251.72 166.001 252.033 164.547 252.02L159.707 252V241.32H162.207V244.82L164.907 244.84ZM170.487 241.32H172.987V252H170.487V241.32ZM164.327 250.18C165.061 250.193 165.621 250.04 166.007 249.72C166.394 249.4 166.587 248.933 166.587 248.32C166.587 247.72 166.401 247.28 166.027 247C165.654 246.72 165.087 246.573 164.327 246.56L162.207 246.54V250.16L164.327 250.18Z" fill="#1C1C1E"/>
<path d="M39.1094 315.4H42.6649V318.6H39.1094V315.4ZM39.1094 321.8H42.6649V325H39.1094V321.8ZM46.2205 315.4H49.776V318.6H46.2205V315.4ZM46.2205 321.8H49.776V325H46.2205V321.8ZM53.3316 315.4H56.8872V318.6H53.3316V315.4ZM53.3316 321.8H56.8872V325H53.3316V321.8Z" fill="#1C1C1E"/>
<path d="M35.5556 333H60.4444C62.4053 333 64 331.565 64 329.8V307.4C64 305.635 62.4053 304.2 60.4444 304.2H56.8889V301H53.3333V304.2H42.6667V301H39.1111V304.2H35.5556C33.5947 304.2 32 305.635 32 307.4V329.8C32 331.565 33.5947 333 35.5556 333ZM60.4444 310.6L60.4462 329.8H35.5556V310.6H60.4444Z" fill="#1C1C1E"/>
<path d="M87.12 318.1H84.52V324H81.96V310H84.52V315.86H87.2L91.22 310H93.98L89.2 316.78L94.16 324H91.22L87.12 318.1ZM99.7616 313.2C101.335 313.2 102.535 313.58 103.362 314.34C104.202 315.087 104.622 316.22 104.622 317.74V324H102.262V322.7C101.955 323.167 101.515 323.527 100.942 323.78C100.382 324.02 99.7016 324.14 98.9016 324.14C98.1016 324.14 97.4016 324.007 96.8016 323.74C96.2016 323.46 95.7349 323.08 95.4016 322.6C95.0816 322.107 94.9216 321.553 94.9216 320.94C94.9216 319.98 95.2749 319.213 95.9816 318.64C96.7016 318.053 97.8282 317.76 99.3616 317.76H102.122V317.6C102.122 316.853 101.895 316.28 101.442 315.88C101.002 315.48 100.342 315.28 99.4616 315.28C98.8616 315.28 98.2682 315.373 97.6816 315.56C97.1082 315.747 96.6216 316.007 96.2216 316.34L95.2416 314.52C95.8016 314.093 96.4749 313.767 97.2616 313.54C98.0482 313.313 98.8816 313.2 99.7616 313.2ZM99.4216 322.32C100.048 322.32 100.602 322.18 101.082 321.9C101.575 321.607 101.922 321.193 102.122 320.66V319.42H99.5416C98.1016 319.42 97.3816 319.893 97.3816 320.84C97.3816 321.293 97.5616 321.653 97.9216 321.92C98.2816 322.187 98.7816 322.32 99.4216 322.32ZM117.395 313.32V324H114.895V315.44H110.895L110.795 317.56C110.728 318.973 110.595 320.16 110.395 321.12C110.208 322.067 109.882 322.82 109.415 323.38C108.962 323.927 108.335 324.2 107.535 324.2C107.162 324.2 106.702 324.127 106.155 323.98L106.275 321.88C106.462 321.92 106.622 321.94 106.755 321.94C107.262 321.94 107.642 321.74 107.895 321.34C108.148 320.927 108.308 320.44 108.375 319.88C108.455 319.307 108.522 318.493 108.575 317.44L108.755 313.32H117.395ZM130.762 318.72C130.762 318.893 130.749 319.14 130.722 319.46H122.342C122.489 320.247 122.869 320.873 123.482 321.34C124.109 321.793 124.882 322.02 125.802 322.02C126.975 322.02 127.942 321.633 128.702 320.86L130.042 322.4C129.562 322.973 128.955 323.407 128.222 323.7C127.489 323.993 126.662 324.14 125.742 324.14C124.569 324.14 123.535 323.907 122.642 323.44C121.749 322.973 121.055 322.327 120.562 321.5C120.082 320.66 119.842 319.713 119.842 318.66C119.842 317.62 120.075 316.687 120.542 315.86C121.022 315.02 121.682 314.367 122.522 313.9C123.362 313.433 124.309 313.2 125.362 313.2C126.402 313.2 127.329 313.433 128.142 313.9C128.969 314.353 129.609 315 130.062 315.84C130.529 316.667 130.762 317.627 130.762 318.72ZM125.362 315.2C124.562 315.2 123.882 315.44 123.322 315.92C122.775 316.387 122.442 317.013 122.322 317.8H128.382C128.275 317.027 127.949 316.4 127.402 315.92C126.855 315.44 126.175 315.2 125.362 315.2ZM133.496 313.32H135.996V317.66H141.376V313.32H143.876V324H141.376V319.78H135.996V324H133.496V313.32ZM158.627 321.88V326.38H156.287V324H148.047V326.38H145.727V321.88H146.227C146.907 321.853 147.367 321.42 147.607 320.58C147.86 319.727 148.027 318.527 148.107 316.98L148.247 313.32H157.047V321.88H158.627ZM150.387 317.16C150.334 318.387 150.234 319.387 150.087 320.16C149.94 320.933 149.674 321.507 149.287 321.88H154.547V315.44H150.447L150.387 317.16ZM164.84 313.2C166.413 313.2 167.613 313.58 168.44 314.34C169.28 315.087 169.7 316.22 169.7 317.74V324H167.34V322.7C167.033 323.167 166.593 323.527 166.02 323.78C165.46 324.02 164.78 324.14 163.98 324.14C163.18 324.14 162.48 324.007 161.88 323.74C161.28 323.46 160.813 323.08 160.48 322.6C160.16 322.107 160 321.553 160 320.94C160 319.98 160.353 319.213 161.06 318.64C161.78 318.053 162.906 317.76 164.44 317.76H167.2V317.6C167.2 316.853 166.973 316.28 166.52 315.88C166.08 315.48 165.42 315.28 164.54 315.28C163.94 315.28 163.346 315.373 162.76 315.56C162.186 315.747 161.7 316.007 161.3 316.34L160.32 314.52C160.88 314.093 161.553 313.767 162.34 313.54C163.126 313.313 163.96 313.2 164.84 313.2ZM164.5 322.32C165.126 322.32 165.68 322.18 166.16 321.9C166.653 321.607 167 321.193 167.2 320.66V319.42H164.62C163.18 319.42 162.46 319.893 162.46 320.84C162.46 321.293 162.64 321.653 163 321.92C163.36 322.187 163.86 322.32 164.5 322.32ZM178.713 313.2C179.753 313.2 180.68 313.427 181.493 313.88C182.32 314.333 182.967 314.973 183.433 315.8C183.9 316.627 184.133 317.58 184.133 318.66C184.133 319.74 183.9 320.7 183.433 321.54C182.967 322.367 182.32 323.007 181.493 323.46C180.68 323.913 179.753 324.14 178.713 324.14C177.273 324.14 176.133 323.66 175.293 322.7V327.88H172.793V313.32H175.173V314.72C175.587 314.213 176.093 313.833 176.693 313.58C177.307 313.327 177.98 313.2 178.713 313.2ZM178.433 322C179.353 322 180.107 321.693 180.693 321.08C181.293 320.467 181.593 319.66 181.593 318.66C181.593 317.66 181.293 316.853 180.693 316.24C180.107 315.627 179.353 315.32 178.433 315.32C177.833 315.32 177.293 315.46 176.813 315.74C176.333 316.007 175.953 316.393 175.673 316.9C175.393 317.407 175.253 317.993 175.253 318.66C175.253 319.327 175.393 319.913 175.673 320.42C175.953 320.927 176.333 321.32 176.813 321.6C177.293 321.867 177.833 322 178.433 322ZM191.981 316.84C193.341 316.84 194.381 317.147 195.101 317.76C195.835 318.373 196.201 319.24 196.201 320.36C196.201 321.533 195.801 322.44 195.001 323.08C194.201 323.72 193.075 324.033 191.621 324.02L186.621 324V313.32H189.121V316.82L191.981 316.84ZM191.401 322.18C192.135 322.193 192.695 322.04 193.081 321.72C193.468 321.4 193.661 320.933 193.661 320.32C193.661 319.72 193.475 319.28 193.101 319C192.728 318.72 192.161 318.573 191.401 318.56L189.121 318.54V322.16L191.401 322.18Z" fill="#1C1C1E"/>
<path d="M48.442 405C46.197 403.085 44.1161 400.986 42.221 398.724C39.3771 395.327 36 390.269 36 385.448C35.9988 382.986 36.7279 380.58 38.095 378.532C39.4622 376.485 41.406 374.889 43.6804 373.947C45.9548 373.005 48.4576 372.759 50.872 373.24C53.2864 373.72 55.5039 374.907 57.2439 376.648C58.4023 377.801 59.3205 379.173 59.9454 380.684C60.5702 382.194 60.8892 383.814 60.884 385.448C60.884 390.269 57.5069 395.327 54.663 398.724C52.7679 400.986 50.687 403.085 48.442 405ZM48.442 380.116C47.0278 380.116 45.6715 380.678 44.6715 381.678C43.6715 382.678 43.1097 384.034 43.1097 385.448C43.1097 386.862 43.6715 388.219 44.6715 389.219C45.6715 390.219 47.0278 390.781 48.442 390.781C49.8562 390.781 51.2125 390.219 52.2125 389.219C53.2125 388.219 53.7743 386.862 53.7743 385.448C53.7743 384.034 53.2125 382.678 52.2125 381.678C51.2125 380.678 49.8562 380.116 48.442 380.116Z" fill="#1C1C1E"/>
<path d="M87.12 390.1H84.52V396H81.96V382H84.52V387.86H87.2L91.22 382H93.98L89.2 388.78L94.16 396H91.22L87.12 390.1ZM99.7616 385.2C101.335 385.2 102.535 385.58 103.362 386.34C104.202 387.087 104.622 388.22 104.622 389.74V396H102.262V394.7C101.955 395.167 101.515 395.527 100.942 395.78C100.382 396.02 99.7016 396.14 98.9016 396.14C98.1016 396.14 97.4016 396.007 96.8016 395.74C96.2016 395.46 95.7349 395.08 95.4016 394.6C95.0816 394.107 94.9216 393.553 94.9216 392.94C94.9216 391.98 95.2749 391.213 95.9816 390.64C96.7016 390.053 97.8282 389.76 99.3616 389.76H102.122V389.6C102.122 388.853 101.895 388.28 101.442 387.88C101.002 387.48 100.342 387.28 99.4616 387.28C98.8616 387.28 98.2682 387.373 97.6816 387.56C97.1082 387.747 96.6216 388.007 96.2216 388.34L95.2416 386.52C95.8016 386.093 96.4749 385.767 97.2616 385.54C98.0482 385.313 98.8816 385.2 99.7616 385.2ZM99.4216 394.32C100.048 394.32 100.602 394.18 101.082 393.9C101.575 393.607 101.922 393.193 102.122 392.66V391.42H99.5416C98.1016 391.42 97.3816 391.893 97.3816 392.84C97.3816 393.293 97.5616 393.653 97.9216 393.92C98.2816 394.187 98.7816 394.32 99.4216 394.32ZM113.635 385.2C114.675 385.2 115.602 385.427 116.415 385.88C117.242 386.333 117.888 386.973 118.355 387.8C118.822 388.627 119.055 389.58 119.055 390.66C119.055 391.74 118.822 392.7 118.355 393.54C117.888 394.367 117.242 395.007 116.415 395.46C115.602 395.913 114.675 396.14 113.635 396.14C112.195 396.14 111.055 395.66 110.215 394.7V399.88H107.715V385.32H110.095V386.72C110.508 386.213 111.015 385.833 111.615 385.58C112.228 385.327 112.902 385.2 113.635 385.2ZM113.355 394C114.275 394 115.028 393.693 115.615 393.08C116.215 392.467 116.515 391.66 116.515 390.66C116.515 389.66 116.215 388.853 115.615 388.24C115.028 387.627 114.275 387.32 113.355 387.32C112.755 387.32 112.215 387.46 111.735 387.74C111.255 388.007 110.875 388.393 110.595 388.9C110.315 389.407 110.175 389.993 110.175 390.66C110.175 391.327 110.315 391.913 110.595 392.42C110.875 392.927 111.255 393.32 111.735 393.6C112.215 393.867 112.755 394 113.355 394ZM129.613 387.44H125.873V396H123.373V387.44H119.613V385.32H129.613V387.44ZM136.626 388.84C137.986 388.84 139.026 389.147 139.746 389.76C140.466 390.373 140.826 391.24 140.826 392.36C140.826 393.533 140.426 394.44 139.626 395.08C138.839 395.72 137.719 396.033 136.266 396.02L131.426 396V385.32H133.926V388.82L136.626 388.84ZM142.206 385.32H144.706V396H142.206V385.32ZM136.046 394.18C136.779 394.193 137.339 394.04 137.726 393.72C138.113 393.4 138.306 392.933 138.306 392.32C138.306 391.72 138.119 391.28 137.746 391C137.373 390.72 136.806 390.573 136.046 390.56L133.926 390.54V394.16L136.046 394.18Z" fill="#1C1C1E"/>
<path d="M60.8 450.945H51.8624L55.5312 447.268L53.2688 445L48 450.281L42.7312 445L40.4688 447.268L44.1376 450.945H35.2C33.4352 450.945 32 452.383 32 454.152V471.793C32 473.562 33.4352 475 35.2 475H60.8C62.5648 475 64 473.562 64 471.793V454.152C64 452.383 62.5648 450.945 60.8 450.945ZM35.2 471.793V454.152H60.8L60.8032 471.793H35.2Z" fill="#1C1C1E"/>
<path d="M91.18 459.72C92.0733 459.96 92.7533 460.373 93.22 460.96C93.6867 461.533 93.92 462.253 93.92 463.12C93.92 464.347 93.4667 465.3 92.56 465.98C91.6533 466.66 90.34 467 88.62 467H81.98V453H88.24C89.8133 453 91.04 453.313 91.92 453.94C92.8 454.567 93.24 455.453 93.24 456.6C93.24 457.333 93.06 457.967 92.7 458.5C92.3533 459.033 91.8467 459.44 91.18 459.72ZM84.54 458.98H88.02C88.86 458.98 89.5 458.813 89.94 458.48C90.38 458.147 90.6 457.653 90.6 457C90.6 456.347 90.38 455.853 89.94 455.52C89.5 455.173 88.86 455 88.02 455H84.54V458.98ZM88.54 465C90.38 465 91.3 464.307 91.3 462.92C91.3 461.56 90.38 460.88 88.54 460.88H84.54V465H88.54ZM96.6019 456.32H99.1019V463.36L105.002 456.32H107.282V467H104.782V459.96L98.9019 467H96.6019V456.32ZM122.045 464.88V469.38H119.705V467H111.465V469.38H109.145V464.88H109.645C110.325 464.853 110.785 464.42 111.025 463.58C111.278 462.727 111.445 461.527 111.525 459.98L111.665 456.32H120.465V464.88H122.045ZM113.805 460.16C113.752 461.387 113.652 462.387 113.505 463.16C113.358 463.933 113.092 464.507 112.705 464.88H117.965V458.44H113.865L113.805 460.16ZM134.418 462.72H132.618V467H130.138V462.72H128.338L125.738 467H122.778L126.278 461.48L123.038 456.32H125.698L128.298 460.64H130.138V456.32H132.618V460.64H134.438L137.058 456.32H139.718L136.478 461.48L139.998 467H137.018L134.418 462.72ZM151.504 461.72C151.504 461.893 151.491 462.14 151.464 462.46H143.084C143.231 463.247 143.611 463.873 144.224 464.34C144.851 464.793 145.624 465.02 146.544 465.02C147.718 465.02 148.684 464.633 149.444 463.86L150.784 465.4C150.304 465.973 149.698 466.407 148.964 466.7C148.231 466.993 147.404 467.14 146.484 467.14C145.311 467.14 144.278 466.907 143.384 466.44C142.491 465.973 141.798 465.327 141.304 464.5C140.824 463.66 140.584 462.713 140.584 461.66C140.584 460.62 140.818 459.687 141.284 458.86C141.764 458.02 142.424 457.367 143.264 456.9C144.104 456.433 145.051 456.2 146.104 456.2C147.144 456.2 148.071 456.433 148.884 456.9C149.711 457.353 150.351 458 150.804 458.84C151.271 459.667 151.504 460.627 151.504 461.72ZM146.104 458.2C145.304 458.2 144.624 458.44 144.064 458.92C143.518 459.387 143.184 460.013 143.064 460.8H149.124C149.018 460.027 148.691 459.4 148.144 458.92C147.598 458.44 146.918 458.2 146.104 458.2ZM162.308 458.44H158.568V467H156.068V458.44H152.308V456.32H162.308V458.44ZM169.321 459.84C170.681 459.84 171.721 460.147 172.441 460.76C173.161 461.373 173.521 462.24 173.521 463.36C173.521 464.533 173.121 465.44 172.321 466.08C171.535 466.72 170.415 467.033 168.961 467.02L164.121 467V456.32H166.621V459.82L169.321 459.84ZM174.901 456.32H177.401V467H174.901V456.32ZM168.741 465.18C169.475 465.193 170.035 465.04 170.421 464.72C170.808 464.4 171.001 463.933 171.001 463.32C171.001 462.72 170.815 462.28 170.441 462C170.068 461.72 169.501 461.573 168.741 461.56L166.621 461.54V465.16L168.741 465.18Z" fill="#1C1C1E"/>
<path d="M51.0029 549H44.9998C44.6237 549 44.2588 548.868 43.9658 548.625C43.6727 548.382 43.469 548.043 43.3885 547.664L42.7173 544.461C41.8219 544.057 40.9729 543.551 40.1858 542.953L37.1562 543.948C36.7976 544.065 36.4107 544.053 36.0597 543.913C35.7087 543.773 35.4148 543.514 35.2267 543.178L32.2186 537.821C32.0324 537.484 31.9626 537.093 32.0204 536.71C32.0782 536.328 32.2603 535.977 32.5368 535.715L34.8869 533.505C34.7801 532.503 34.7801 531.493 34.8869 530.492L32.5368 528.287C32.2599 528.025 32.0776 527.674 32.0197 527.291C31.9619 526.908 32.032 526.516 32.2186 526.179L35.2201 520.819C35.4082 520.483 35.7021 520.223 36.0531 520.083C36.4041 519.943 36.791 519.931 37.1496 520.049L40.1792 521.043C40.5816 520.737 41.0005 520.452 41.4326 520.193C41.8498 519.952 42.2786 519.733 42.7173 519.537L43.3902 516.338C43.4703 515.959 43.6736 515.62 43.9663 515.377C44.2591 515.133 44.6237 515 44.9998 515H51.0029C51.3789 515 51.7436 515.133 52.0363 515.377C52.3291 515.62 52.5324 515.959 52.6125 516.338L53.2919 519.539C54.1868 519.943 55.0353 520.449 55.8218 521.047L58.853 520.052C59.2114 519.935 59.5979 519.947 59.9486 520.087C60.2992 520.227 60.5929 520.487 60.7809 520.823L63.7825 526.183C64.1651 526.875 64.0331 527.75 63.4642 528.289L61.1141 530.499C61.2209 531.5 61.2209 532.51 61.1141 533.511L63.4642 535.721C64.0331 536.262 64.1651 537.136 63.7825 537.828L60.7809 543.188C60.5928 543.524 60.2989 543.783 59.9479 543.923C59.5969 544.064 59.21 544.076 58.8514 543.958L55.8218 542.963C55.0354 543.561 54.1868 544.066 53.2919 544.469L52.6125 547.664C52.532 548.042 52.3286 548.381 52.0359 548.624C51.7432 548.867 51.3787 549 51.0029 549ZM40.7779 539.189L42.1302 540.209C42.4353 540.441 42.7519 540.653 43.0818 540.847C43.3918 541.032 43.7085 541.199 44.0367 541.35L45.5754 542.045L46.329 545.6H49.6769L50.4306 542.044L51.9693 541.348C52.6405 541.042 53.2787 540.663 53.8708 540.216L55.2231 539.196L58.5908 540.301L60.2647 537.313L57.6541 534.859L57.8388 533.139C57.9212 532.386 57.9212 531.626 57.8388 530.875L57.6541 529.154L60.2664 526.696L58.5908 523.706L55.2248 524.811L53.8708 523.791C53.2784 523.341 52.6409 522.959 51.9693 522.65L50.4306 521.955L49.6769 518.4H46.329L45.5704 521.956L44.0367 522.65C43.3641 522.954 42.7264 523.333 42.1351 523.782L40.7812 524.802L37.4168 523.697L35.7396 526.696L38.3503 529.146L38.1655 530.868C38.0831 531.621 38.0831 532.381 38.1655 533.132L38.3503 534.853L35.7396 537.306L37.4135 540.294L40.7779 539.189V539.189ZM47.9947 538.8C46.2452 538.8 44.5672 538.084 43.3301 536.808C42.093 535.533 41.398 533.803 41.398 532C41.398 530.197 42.093 528.467 43.3301 527.192C44.5672 525.916 46.2452 525.2 47.9947 525.2C49.7443 525.2 51.4222 525.916 52.6594 527.192C53.8965 528.467 54.5915 530.197 54.5915 532C54.5915 533.803 53.8965 535.533 52.6594 536.808C51.4222 538.084 49.7443 538.8 47.9947 538.8ZM47.9947 528.6C47.3488 528.601 46.7173 528.797 46.1786 529.164C45.6399 529.531 45.2176 530.054 44.9642 530.666C44.7108 531.278 44.6373 531.954 44.753 532.609C44.8687 533.264 45.1685 533.87 45.615 534.351C46.0616 534.832 46.6353 535.167 47.2651 535.315C47.8948 535.463 48.5528 535.417 49.1575 535.183C49.7622 534.949 50.2869 534.537 50.6665 533.998C51.0462 533.46 51.2641 532.818 51.2931 532.153V532.833V532C51.2931 531.098 50.9456 530.233 50.327 529.596C49.7085 528.958 48.8695 528.6 47.9947 528.6Z" fill="#1C1C1E"/>
<path d="M94.4 525V539H91.8V533H84.56V539H81.96V525H84.56V530.78H91.8V525H94.4ZM102.027 528.2C103.601 528.2 104.801 528.58 105.627 529.34C106.467 530.087 106.887 531.22 106.887 532.74V539H104.527V537.7C104.221 538.167 103.781 538.527 103.207 538.78C102.647 539.02 101.967 539.14 101.167 539.14C100.367 539.14 99.6672 539.007 99.0672 538.74C98.4672 538.46 98.0005 538.08 97.6672 537.6C97.3472 537.107 97.1872 536.553 97.1872 535.94C97.1872 534.98 97.5405 534.213 98.2472 533.64C98.9672 533.053 100.094 532.76 101.627 532.76H104.387V532.6C104.387 531.853 104.161 531.28 103.707 530.88C103.267 530.48 102.607 530.28 101.727 530.28C101.127 530.28 100.534 530.373 99.9472 530.56C99.3739 530.747 98.8872 531.007 98.4872 531.34L97.5072 529.52C98.0672 529.093 98.7405 528.767 99.5272 528.54C100.314 528.313 101.147 528.2 102.027 528.2ZM101.687 537.32C102.314 537.32 102.867 537.18 103.347 536.9C103.841 536.607 104.187 536.193 104.387 535.66V534.42H101.807C100.367 534.42 99.6472 534.893 99.6472 535.84C99.6472 536.293 99.8272 536.653 100.187 536.92C100.547 537.187 101.047 537.32 101.687 537.32ZM114.841 539.14C113.734 539.14 112.741 538.907 111.861 538.44C110.981 537.973 110.294 537.327 109.801 536.5C109.307 535.66 109.061 534.713 109.061 533.66C109.061 532.607 109.307 531.667 109.801 530.84C110.294 530.013 110.974 529.367 111.841 528.9C112.721 528.433 113.721 528.2 114.841 528.2C115.894 528.2 116.814 528.413 117.601 528.84C118.401 529.267 119.001 529.88 119.401 530.68L117.481 531.8C117.174 531.307 116.787 530.94 116.321 530.7C115.867 530.447 115.367 530.32 114.821 530.32C113.887 530.32 113.114 530.627 112.501 531.24C111.887 531.84 111.581 532.647 111.581 533.66C111.581 534.673 111.881 535.487 112.481 536.1C113.094 536.7 113.874 537 114.821 537C115.367 537 115.867 536.88 116.321 536.64C116.787 536.387 117.174 536.013 117.481 535.52L119.401 536.64C118.987 537.44 118.381 538.06 117.581 538.5C116.794 538.927 115.881 539.14 114.841 539.14ZM129.964 530.44H126.224V539H123.724V530.44H119.964V528.32H129.964V530.44ZM137.698 528.2C138.738 528.2 139.664 528.427 140.478 528.88C141.304 529.333 141.951 529.973 142.418 530.8C142.884 531.627 143.118 532.58 143.118 533.66C143.118 534.74 142.884 535.7 142.418 536.54C141.951 537.367 141.304 538.007 140.478 538.46C139.664 538.913 138.738 539.14 137.698 539.14C136.258 539.14 135.118 538.66 134.278 537.7V542.88H131.778V528.32H134.158V529.72C134.571 529.213 135.078 528.833 135.678 528.58C136.291 528.327 136.964 528.2 137.698 528.2ZM137.418 537C138.338 537 139.091 536.693 139.678 536.08C140.278 535.467 140.578 534.66 140.578 533.66C140.578 532.66 140.278 531.853 139.678 531.24C139.091 530.627 138.338 530.32 137.418 530.32C136.818 530.32 136.278 530.46 135.798 530.74C135.318 531.007 134.938 531.393 134.658 531.9C134.378 532.407 134.238 532.993 134.238 533.66C134.238 534.327 134.378 534.913 134.658 535.42C134.938 535.927 135.318 536.32 135.798 536.6C136.278 536.867 136.818 537 137.418 537ZM150.366 539.14C149.286 539.14 148.312 538.907 147.446 538.44C146.579 537.973 145.899 537.327 145.406 536.5C144.926 535.66 144.686 534.713 144.686 533.66C144.686 532.607 144.926 531.667 145.406 530.84C145.899 530.013 146.579 529.367 147.446 528.9C148.312 528.433 149.286 528.2 150.366 528.2C151.459 528.2 152.439 528.433 153.306 528.9C154.172 529.367 154.846 530.013 155.326 530.84C155.819 531.667 156.066 532.607 156.066 533.66C156.066 534.713 155.819 535.66 155.326 536.5C154.846 537.327 154.172 537.973 153.306 538.44C152.439 538.907 151.459 539.14 150.366 539.14ZM150.366 537C151.286 537 152.046 536.693 152.646 536.08C153.246 535.467 153.546 534.66 153.546 533.66C153.546 532.66 153.246 531.853 152.646 531.24C152.046 530.627 151.286 530.32 150.366 530.32C149.446 530.32 148.686 530.627 148.086 531.24C147.499 531.853 147.206 532.66 147.206 533.66C147.206 534.66 147.499 535.467 148.086 536.08C148.686 536.693 149.446 537 150.366 537ZM158.535 528.32H161.035V535.36L166.935 528.32H169.215V539H166.715V531.96L160.835 539H158.535V528.32ZM163.715 527.06C162.635 527.06 161.809 526.813 161.235 526.32C160.675 525.813 160.389 525.08 160.375 524.12H162.035C162.049 524.6 162.195 524.98 162.475 525.26C162.769 525.54 163.175 525.68 163.695 525.68C164.202 525.68 164.602 525.54 164.895 525.26C165.202 524.98 165.362 524.6 165.375 524.12H167.075C167.062 525.08 166.769 525.813 166.195 526.32C165.622 526.813 164.795 527.06 163.715 527.06ZM177.018 534.72H175.078V539H172.578V528.32H175.078V532.64H177.078L180.238 528.32H182.918L179.038 533.46L183.178 539H180.238L177.018 534.72ZM184.942 528.32H187.442V535.36L193.342 528.32H195.622V539H193.122V531.96L187.242 539H184.942V528.32Z" fill="#1C1C1E"/>
<path d="M272.067 525.75C272.259 525.417 272.741 525.417 272.933 525.75L278.562 535.5C278.755 535.833 278.514 536.25 278.129 536.25H266.871C266.486 536.25 266.245 535.833 266.438 535.5L272.067 525.75Z" fill="#A8A8A8"/>
<path d="M93.9999 605.029C98.426 605.029 102.014 601.44 102.014 597.014C102.014 592.588 98.426 589 93.9999 589C89.5737 589 85.9856 592.588 85.9856 597.014C85.9856 601.44 89.5737 605.029 93.9999 605.029Z" stroke="#1C1C1E" stroke-width="2"/>
<path d="M102.014 608.234H102.578C103.75 608.235 104.882 608.663 105.76 609.438C106.638 610.214 107.203 611.284 107.349 612.447L107.975 617.454C108.032 617.905 107.991 618.363 107.857 618.797C107.723 619.232 107.498 619.632 107.197 619.973C106.896 620.314 106.526 620.587 106.112 620.774C105.698 620.961 105.248 621.057 104.794 621.057H83.2064C82.7518 621.057 82.3024 620.961 81.888 620.774C81.4736 620.587 81.1036 620.314 80.8027 619.973C80.5018 619.632 80.2768 619.232 80.1427 618.797C80.0086 618.363 79.9684 617.905 80.0247 617.454L80.6499 612.447C80.7952 611.283 81.3606 610.213 82.2396 609.437C83.1186 608.662 84.2508 608.234 85.4231 608.234H85.9857" stroke="#1C1C1E" stroke-width="2" stroke-linecap="round" stroke-linejoin="round"/>
<path d="M138.4 586V600H135.8V594H128.56V600H125.96V586H128.56V591.78H135.8V586H138.4ZM146.027 589.2C147.601 589.2 148.801 589.58 149.627 590.34C150.467 591.087 150.887 592.22 150.887 593.74V600H148.527V598.7C148.221 599.167 147.781 599.527 147.207 599.78C146.647 600.02 145.967 600.14 145.167 600.14C144.367 600.14 143.667 600.007 143.067 599.74C142.467 599.46 142.001 599.08 141.667 598.6C141.347 598.107 141.187 597.553 141.187 596.94C141.187 595.98 141.541 595.213 142.247 594.64C142.967 594.053 144.094 593.76 145.627 593.76H148.387V593.6C148.387 592.853 148.161 592.28 147.707 591.88C147.267 591.48 146.607 591.28 145.727 591.28C145.127 591.28 144.534 591.373 143.947 591.56C143.374 591.747 142.887 592.007 142.487 592.34L141.507 590.52C142.067 590.093 142.741 589.767 143.527 589.54C144.314 589.313 145.147 589.2 146.027 589.2ZM145.687 598.32C146.314 598.32 146.867 598.18 147.347 597.9C147.841 597.607 148.187 597.193 148.387 596.66V595.42H145.807C144.367 595.42 143.647 595.893 143.647 596.84C143.647 597.293 143.827 597.653 144.187 597.92C144.547 598.187 145.047 598.32 145.687 598.32ZM158.841 600.14C157.734 600.14 156.741 599.907 155.861 599.44C154.981 598.973 154.294 598.327 153.801 597.5C153.307 596.66 153.061 595.713 153.061 594.66C153.061 593.607 153.307 592.667 153.801 591.84C154.294 591.013 154.974 590.367 155.841 589.9C156.721 589.433 157.721 589.2 158.841 589.2C159.894 589.2 160.814 589.413 161.601 589.84C162.401 590.267 163.001 590.88 163.401 591.68L161.481 592.8C161.174 592.307 160.787 591.94 160.321 591.7C159.867 591.447 159.367 591.32 158.821 591.32C157.887 591.32 157.114 591.627 156.501 592.24C155.887 592.84 155.581 593.647 155.581 594.66C155.581 595.673 155.881 596.487 156.481 597.1C157.094 597.7 157.874 598 158.821 598C159.367 598 159.867 597.88 160.321 597.64C160.787 597.387 161.174 597.013 161.481 596.52L163.401 597.64C162.987 598.44 162.381 599.06 161.581 599.5C160.794 599.927 159.881 600.14 158.841 600.14ZM173.964 591.44H170.224V600H167.724V591.44H163.964V589.32H173.964V591.44ZM181.698 589.2C182.738 589.2 183.664 589.427 184.478 589.88C185.304 590.333 185.951 590.973 186.418 591.8C186.884 592.627 187.118 593.58 187.118 594.66C187.118 595.74 186.884 596.7 186.418 597.54C185.951 598.367 185.304 599.007 184.478 599.46C183.664 599.913 182.738 600.14 181.698 600.14C180.258 600.14 179.118 599.66 178.278 598.7V603.88H175.778V589.32H178.158V590.72C178.571 590.213 179.078 589.833 179.678 589.58C180.291 589.327 180.964 589.2 181.698 589.2ZM181.418 598C182.338 598 183.091 597.693 183.678 597.08C184.278 596.467 184.578 595.66 184.578 594.66C184.578 593.66 184.278 592.853 183.678 592.24C183.091 591.627 182.338 591.32 181.418 591.32C180.818 591.32 180.278 591.46 179.798 591.74C179.318 592.007 178.938 592.393 178.658 592.9C178.378 593.407 178.238 593.993 178.238 594.66C178.238 595.327 178.378 595.913 178.658 596.42C178.938 596.927 179.318 597.32 179.798 597.6C180.278 597.867 180.818 598 181.418 598ZM194.366 600.14C193.286 600.14 192.312 599.907 191.446 599.44C190.579 598.973 189.899 598.327 189.406 597.5C188.926 596.66 188.686 595.713 188.686 594.66C188.686 593.607 188.926 592.667 189.406 591.84C189.899 591.013 190.579 590.367 191.446 589.9C192.312 589.433 193.286 589.2 194.366 589.2C195.459 589.2 196.439 589.433 197.306 589.9C198.172 590.367 198.846 591.013 199.326 591.84C199.819 592.667 200.066 593.607 200.066 594.66C200.066 595.713 199.819 596.66 199.326 597.5C198.846 598.327 198.172 598.973 197.306 599.44C196.439 599.907 195.459 600.14 194.366 600.14ZM194.366 598C195.286 598 196.046 597.693 196.646 597.08C197.246 596.467 197.546 595.66 197.546 594.66C197.546 593.66 197.246 592.853 196.646 592.24C196.046 591.627 195.286 591.32 194.366 591.32C193.446 591.32 192.686 591.627 192.086 592.24C191.499 592.853 191.206 593.66 191.206 594.66C191.206 595.66 191.499 596.467 192.086 597.08C192.686 597.693 193.446 598 194.366 598ZM202.535 589.32H205.035V596.36L210.935 589.32H213.215V600H210.715V592.96L204.835 600H202.535V589.32ZM207.715 588.06C206.635 588.06 205.809 587.813 205.235 587.32C204.675 586.813 204.389 586.08 204.375 585.12H206.035C206.049 585.6 206.195 585.98 206.475 586.26C206.769 586.54 207.175 586.68 207.695 586.68C208.202 586.68 208.602 586.54 208.895 586.26C209.202 585.98 209.362 585.6 209.375 585.12H211.075C211.062 586.08 210.769 586.813 210.195 587.32C209.622 587.813 208.795 588.06 207.715 588.06ZM221.018 595.72H219.078V600H216.578V589.32H219.078V593.64H221.078L224.238 589.32H226.918L223.038 594.46L227.178 600H224.238L221.018 595.72ZM228.942 589.32H231.442V596.36L237.342 589.32H239.622V600H237.122V592.96L231.242 600H228.942V589.32ZM135.92 613.32V624H133.44V615.44H128.18V624H125.68V613.32H135.92ZM145.213 613.2C146.253 613.2 147.18 613.427 147.993 613.88C148.82 614.333 149.467 614.973 149.933 615.8C150.4 616.627 150.633 617.58 150.633 618.66C150.633 619.74 150.4 620.7 149.933 621.54C149.467 622.367 148.82 623.007 147.993 623.46C147.18 623.913 146.253 624.14 145.213 624.14C143.773 624.14 142.633 623.66 141.793 622.7V627.88H139.293V613.32H141.673V614.72C142.087 614.213 142.593 613.833 143.193 613.58C143.807 613.327 144.48 613.2 145.213 613.2ZM144.933 622C145.853 622 146.607 621.693 147.193 621.08C147.793 620.467 148.093 619.66 148.093 618.66C148.093 617.66 147.793 616.853 147.193 616.24C146.607 615.627 145.853 615.32 144.933 615.32C144.333 615.32 143.793 615.46 143.313 615.74C142.833 616.007 142.453 616.393 142.173 616.9C141.893 617.407 141.753 617.993 141.753 618.66C141.753 619.327 141.893 619.913 142.173 620.42C142.453 620.927 142.833 621.32 143.313 621.6C143.793 621.867 144.333 622 144.933 622ZM157.881 624.14C156.801 624.14 155.828 623.907 154.961 623.44C154.095 622.973 153.415 622.327 152.921 621.5C152.441 620.66 152.201 619.713 152.201 618.66C152.201 617.607 152.441 616.667 152.921 615.84C153.415 615.013 154.095 614.367 154.961 613.9C155.828 613.433 156.801 613.2 157.881 613.2C158.975 613.2 159.955 613.433 160.821 613.9C161.688 614.367 162.361 615.013 162.841 615.84C163.335 616.667 163.581 617.607 163.581 618.66C163.581 619.713 163.335 620.66 162.841 621.5C162.361 622.327 161.688 622.973 160.821 623.44C159.955 623.907 158.975 624.14 157.881 624.14ZM157.881 622C158.801 622 159.561 621.693 160.161 621.08C160.761 620.467 161.061 619.66 161.061 618.66C161.061 617.66 160.761 616.853 160.161 616.24C159.561 615.627 158.801 615.32 157.881 615.32C156.961 615.32 156.201 615.627 155.601 616.24C155.015 616.853 154.721 617.66 154.721 618.66C154.721 619.66 155.015 620.467 155.601 621.08C156.201 621.693 156.961 622 157.881 622ZM180.171 618.64C180.171 620.293 179.618 621.593 178.511 622.54C177.418 623.487 175.851 624.027 173.811 624.16V627.88H171.451V624.18C169.411 624.047 167.844 623.507 166.751 622.56C165.658 621.613 165.111 620.307 165.111 618.64C165.111 616.987 165.658 615.7 166.751 614.78C167.844 613.847 169.411 613.313 171.451 613.18V609.16H173.811V613.18C175.851 613.313 177.418 613.847 178.511 614.78C179.618 615.713 180.171 617 180.171 618.64ZM167.571 618.64C167.571 619.667 167.884 620.467 168.511 621.04C169.151 621.613 170.131 621.96 171.451 622.08V615.3C170.131 615.407 169.151 615.74 168.511 616.3C167.884 616.86 167.571 617.64 167.571 618.64ZM173.811 622.08C176.424 621.84 177.731 620.693 177.731 618.64C177.731 617.627 177.404 616.847 176.751 616.3C176.111 615.74 175.131 615.407 173.811 615.3V622.08ZM182.594 613.32H185.094V620.36L190.994 613.32H193.274V624H190.774V616.96L184.894 624H182.594V613.32ZM206.317 613.32V624H203.817V615.44H199.817L199.717 617.56C199.65 618.973 199.517 620.16 199.317 621.12C199.13 622.067 198.804 622.82 198.337 623.38C197.884 623.927 197.257 624.2 196.457 624.2C196.084 624.2 195.624 624.127 195.077 623.98L195.197 621.88C195.384 621.92 195.544 621.94 195.677 621.94C196.184 621.94 196.564 621.74 196.817 621.34C197.07 620.927 197.23 620.44 197.297 619.88C197.377 619.307 197.444 618.493 197.497 617.44L197.677 613.32H206.317ZM218.704 613.32V624H216.464V620.78H213.644L211.464 624H208.784L211.304 620.44C210.531 620.173 209.937 619.767 209.524 619.22C209.124 618.66 208.924 617.973 208.924 617.16C208.924 615.933 209.357 614.987 210.224 614.32C211.091 613.653 212.284 613.32 213.804 613.32H218.704ZM213.884 615.42C212.271 615.42 211.464 616.027 211.464 617.24C211.464 618.44 212.244 619.04 213.804 619.04H216.464V615.42H213.884Z" fill="#1C1C1E"/>
<path d="M137.98 666L131.9 677.3C131.367 678.3 130.727 679.053 129.98 679.56C129.247 680.053 128.447 680.3 127.58 680.3C126.887 680.3 126.2 680.153 125.52 679.86L126.16 677.82C126.707 677.993 127.16 678.08 127.52 678.08C128.36 678.08 129.053 677.647 129.6 676.78L129.82 676.44L124.24 666H127.02L131.16 674.22L135.42 666H137.98ZM149.338 669.32V680H146.858V671.44H141.598V680H139.098V669.32H149.338ZM158.631 669.2C159.671 669.2 160.598 669.427 161.411 669.88C162.238 670.333 162.885 670.973 163.351 671.8C163.818 672.627 164.051 673.58 164.051 674.66C164.051 675.74 163.818 676.7 163.351 677.54C162.885 678.367 162.238 679.007 161.411 679.46C160.598 679.913 159.671 680.14 158.631 680.14C157.191 680.14 156.051 679.66 155.211 678.7V683.88H152.711V669.32H155.091V670.72C155.505 670.213 156.011 669.833 156.611 669.58C157.225 669.327 157.898 669.2 158.631 669.2ZM158.351 678C159.271 678 160.025 677.693 160.611 677.08C161.211 676.467 161.511 675.66 161.511 674.66C161.511 673.66 161.211 672.853 160.611 672.24C160.025 671.627 159.271 671.32 158.351 671.32C157.751 671.32 157.211 671.46 156.731 671.74C156.251 672.007 155.871 672.393 155.591 672.9C155.311 673.407 155.171 673.993 155.171 674.66C155.171 675.327 155.311 675.913 155.591 676.42C155.871 676.927 156.251 677.32 156.731 677.6C157.211 677.867 157.751 678 158.351 678ZM170.383 669.2C171.956 669.2 173.156 669.58 173.983 670.34C174.823 671.087 175.243 672.22 175.243 673.74V680H172.883V678.7C172.576 679.167 172.136 679.527 171.563 679.78C171.003 680.02 170.323 680.14 169.523 680.14C168.723 680.14 168.023 680.007 167.423 679.74C166.823 679.46 166.356 679.08 166.023 678.6C165.703 678.107 165.543 677.553 165.543 676.94C165.543 675.98 165.896 675.213 166.603 674.64C167.323 674.053 168.449 673.76 169.983 673.76H172.743V673.6C172.743 672.853 172.516 672.28 172.063 671.88C171.623 671.48 170.963 671.28 170.083 671.28C169.483 671.28 168.889 671.373 168.303 671.56C167.729 671.747 167.243 672.007 166.843 672.34L165.863 670.52C166.423 670.093 167.096 669.767 167.883 669.54C168.669 669.313 169.503 669.2 170.383 669.2ZM170.043 678.32C170.669 678.32 171.223 678.18 171.703 677.9C172.196 677.607 172.543 677.193 172.743 676.66V675.42H170.163C168.723 675.42 168.003 675.893 168.003 676.84C168.003 677.293 168.183 677.653 168.543 677.92C168.903 678.187 169.403 678.32 170.043 678.32ZM186.076 674.44C187.396 674.84 188.056 675.693 188.056 677C188.056 677.96 187.696 678.7 186.976 679.22C186.256 679.74 185.19 680 183.776 680H178.336V669.32H183.556C184.863 669.32 185.883 669.56 186.616 670.04C187.35 670.52 187.716 671.2 187.716 672.08C187.716 672.627 187.57 673.1 187.276 673.5C186.996 673.9 186.596 674.213 186.076 674.44ZM180.716 673.78H183.336C184.63 673.78 185.276 673.333 185.276 672.44C185.276 671.573 184.63 671.14 183.336 671.14H180.716V673.78ZM183.576 678.18C184.95 678.18 185.636 677.733 185.636 676.84C185.636 676.373 185.476 676.027 185.156 675.8C184.836 675.56 184.336 675.44 183.656 675.44H180.716V678.18H183.576ZM200.399 669.32V680H197.899V671.44H193.899L193.799 673.56C193.732 674.973 193.599 676.16 193.399 677.12C193.212 678.067 192.886 678.82 192.419 679.38C191.966 679.927 191.339 680.2 190.539 680.2C190.166 680.2 189.706 680.127 189.159 679.98L189.279 677.88C189.466 677.92 189.626 677.94 189.759 677.94C190.266 677.94 190.646 677.74 190.899 677.34C191.152 676.927 191.312 676.44 191.379 675.88C191.459 675.307 191.526 674.493 191.579 673.44L191.759 669.32H200.399ZM213.766 674.72C213.766 674.893 213.753 675.14 213.726 675.46H205.346C205.493 676.247 205.873 676.873 206.486 677.34C207.113 677.793 207.886 678.02 208.806 678.02C209.979 678.02 210.946 677.633 211.706 676.86L213.046 678.4C212.566 678.973 211.959 679.407 211.226 679.7C210.493 679.993 209.666 680.14 208.746 680.14C207.573 680.14 206.539 679.907 205.646 679.44C204.753 678.973 204.059 678.327 203.566 677.5C203.086 676.66 202.846 675.713 202.846 674.66C202.846 673.62 203.079 672.687 203.546 671.86C204.026 671.02 204.686 670.367 205.526 669.9C206.366 669.433 207.313 669.2 208.366 669.2C209.406 669.2 210.333 669.433 211.146 669.9C211.973 670.353 212.613 671 213.066 671.84C213.533 672.667 213.766 673.627 213.766 674.72ZM208.366 671.2C207.566 671.2 206.886 671.44 206.326 671.92C205.779 672.387 205.446 673.013 205.326 673.8H211.386C211.279 673.027 210.953 672.4 210.406 671.92C209.859 671.44 209.179 671.2 208.366 671.2ZM216.5 669.32H219V673.66H224.38V669.32H226.88V680H224.38V675.78H219V680H216.5V669.32ZM230.231 669.32H232.731V676.36L238.631 669.32H240.911V680H238.411V672.96L232.531 680H230.231V669.32ZM254.274 674.72C254.274 674.893 254.26 675.14 254.234 675.46H245.854C246 676.247 246.38 676.873 246.994 677.34C247.62 677.793 248.394 678.02 249.314 678.02C250.487 678.02 251.454 677.633 252.214 676.86L253.554 678.4C253.074 678.973 252.467 679.407 251.734 679.7C251 679.993 250.174 680.14 249.254 680.14C248.08 680.14 247.047 679.907 246.154 679.44C245.26 678.973 244.567 678.327 244.074 677.5C243.594 676.66 243.354 675.713 243.354 674.66C243.354 673.62 243.587 672.687 244.054 671.86C244.534 671.02 245.194 670.367 246.034 669.9C246.874 669.433 247.82 669.2 248.874 669.2C249.914 669.2 250.84 669.433 251.654 669.9C252.48 670.353 253.12 671 253.574 671.84C254.04 672.667 254.274 673.627 254.274 674.72ZM248.874 671.2C248.074 671.2 247.394 671.44 246.834 671.92C246.287 672.387 245.954 673.013 245.834 673.8H251.894C251.787 673.027 251.46 672.4 250.914 671.92C250.367 671.44 249.687 671.2 248.874 671.2ZM139.8 698.64C139.8 700.293 139.247 701.593 138.14 702.54C137.047 703.487 135.48 704.027 133.44 704.16V707.88H131.08V704.18C129.04 704.047 127.473 703.507 126.38 702.56C125.287 701.613 124.74 700.307 124.74 698.64C124.74 696.987 125.287 695.7 126.38 694.78C127.473 693.847 129.04 693.313 131.08 693.18V689.16H133.44V693.18C135.48 693.313 137.047 693.847 138.14 694.78C139.247 695.713 139.8 697 139.8 698.64ZM127.2 698.64C127.2 699.667 127.513 700.467 128.14 701.04C128.78 701.613 129.76 701.96 131.08 702.08V695.3C129.76 695.407 128.78 695.74 128.14 696.3C127.513 696.86 127.2 697.64 127.2 698.64ZM133.44 702.08C136.053 701.84 137.36 700.693 137.36 698.64C137.36 697.627 137.033 696.847 136.38 696.3C135.74 695.74 134.76 695.407 133.44 695.3V702.08ZM142.223 693.32H144.723V700.36L150.623 693.32H152.903V704H150.403V696.96L144.523 704H142.223V693.32ZM156.266 693.32H158.766V697.66H164.146V693.32H166.646V704H164.146V699.78H158.766V704H156.266V693.32ZM173.976 693.2C175.55 693.2 176.75 693.58 177.576 694.34C178.416 695.087 178.836 696.22 178.836 697.74V704H176.476V702.7C176.17 703.167 175.73 703.527 175.156 703.78C174.596 704.02 173.916 704.14 173.116 704.14C172.316 704.14 171.616 704.007 171.016 703.74C170.416 703.46 169.95 703.08 169.616 702.6C169.296 702.107 169.136 701.553 169.136 700.94C169.136 699.98 169.49 699.213 170.196 698.64C170.916 698.053 172.043 697.76 173.576 697.76H176.336V697.6C176.336 696.853 176.11 696.28 175.656 695.88C175.216 695.48 174.556 695.28 173.676 695.28C173.076 695.28 172.483 695.373 171.896 695.56C171.323 695.747 170.836 696.007 170.436 696.34L169.456 694.52C170.016 694.093 170.69 693.767 171.476 693.54C172.263 693.313 173.096 693.2 173.976 693.2ZM173.636 702.32C174.263 702.32 174.816 702.18 175.296 701.9C175.79 701.607 176.136 701.193 176.336 700.66V699.42H173.756C172.316 699.42 171.596 699.893 171.596 700.84C171.596 701.293 171.776 701.653 172.136 701.92C172.496 702.187 172.996 702.32 173.636 702.32ZM181.93 693.32H184.43V697.66H189.81V693.32H192.31V704H189.81V699.78H184.43V704H181.93V693.32ZM200.52 704.14C199.414 704.14 198.42 703.907 197.54 703.44C196.66 702.973 195.974 702.327 195.48 701.5C194.987 700.66 194.74 699.713 194.74 698.66C194.74 697.607 194.987 696.667 195.48 695.84C195.974 695.013 196.654 694.367 197.52 693.9C198.4 693.433 199.4 693.2 200.52 693.2C201.574 693.2 202.494 693.413 203.28 693.84C204.08 694.267 204.68 694.88 205.08 695.68L203.16 696.8C202.854 696.307 202.467 695.94 202 695.7C201.547 695.447 201.047 695.32 200.5 695.32C199.567 695.32 198.794 695.627 198.18 696.24C197.567 696.84 197.26 697.647 197.26 698.66C197.26 699.673 197.56 700.487 198.16 701.1C198.774 701.7 199.554 702 200.5 702C201.047 702 201.547 701.88 202 701.64C202.467 701.387 202.854 701.013 203.16 700.52L205.08 701.64C204.667 702.44 204.06 703.06 203.26 703.5C202.474 703.927 201.56 704.14 200.52 704.14ZM211.262 693.2C212.835 693.2 214.035 693.58 214.862 694.34C215.702 695.087 216.122 696.22 216.122 697.74V704H213.762V702.7C213.455 703.167 213.015 703.527 212.442 703.78C211.882 704.02 211.202 704.14 210.402 704.14C209.602 704.14 208.902 704.007 208.302 703.74C207.702 703.46 207.235 703.08 206.902 702.6C206.582 702.107 206.422 701.553 206.422 700.94C206.422 699.98 206.775 699.213 207.482 698.64C208.202 698.053 209.328 697.76 210.862 697.76H213.622V697.6C213.622 696.853 213.395 696.28 212.942 695.88C212.502 695.48 211.842 695.28 210.962 695.28C210.362 695.28 209.768 695.373 209.182 695.56C208.608 695.747 208.122 696.007 207.722 696.34L206.742 694.52C207.302 694.093 207.975 693.767 208.762 693.54C209.548 693.313 210.382 693.2 211.262 693.2ZM210.922 702.32C211.548 702.32 212.102 702.18 212.582 701.9C213.075 701.607 213.422 701.193 213.622 700.66V699.42H211.042C209.602 699.42 208.882 699.893 208.882 700.84C208.882 701.293 209.062 701.653 209.422 701.92C209.782 702.187 210.282 702.32 210.922 702.32ZM229.715 704V696.92L226.115 702.88H225.035L221.495 696.9V704H219.215V693.32H221.835L225.635 700L229.615 693.32H231.955L231.975 704H229.715ZM235.328 693.32H237.828V700.36L243.728 693.32H246.008V704H243.508V696.96L237.628 704H235.328V693.32Z" fill="#1C1C1E"/>
<path d="M102 669H86C84.24 669 82.8 670.44 82.8 672.2V675.4C82.8 677.16 84.24 678.6 86 678.6H102C103.76 678.6 105.2 677.16 105.2 675.4V672.2C105.2 670.44 103.76 669 102 669ZM102 675.4H86V672.2H102V675.4ZM106.8 701H81.2C79.44 701 78 699.56 78 697.8V696.2H110V697.8C110 699.56 108.56 701 106.8 701ZM104.448 682.104C104.196 681.538 103.785 681.057 103.265 680.719C102.746 680.382 102.14 680.201 101.52 680.2H86.48C85.216 680.2 84.064 680.952 83.552 682.104L78 694.6H110L104.448 682.104ZM90 691.4H88.4C87.952 691.4 87.6 691.048 87.6 690.6C87.6 690.152 87.952 689.8 88.4 689.8H90C90.448 689.8 90.8 690.152 90.8 690.6C90.8 691.048 90.448 691.4 90 691.4ZM90 688.2H88.4C87.952 688.2 87.6 687.848 87.6 687.4C87.6 686.952 87.952 686.6 88.4 686.6H90C90.448 686.6 90.8 686.952 90.8 687.4C90.8 687.848 90.448 688.2 90 688.2ZM90 685H88.4C87.952 685 87.6 684.648 87.6 684.2C87.6 683.752 87.952 683.4 88.4 683.4H90C90.448 683.4 90.8 683.752 90.8 684.2C90.8 684.648 90.448 685 90 685ZM94.8 691.4H93.2C92.752 691.4 92.4 691.048 92.4 690.6C92.4 690.152 92.752 689.8 93.2 689.8H94.8C95.248 689.8 95.6 690.152 95.6 690.6C95.6 691.048 95.248 691.4 94.8 691.4ZM94.8 688.2H93.2C92.752 688.2 92.4 687.848 92.4 687.4C92.4 686.952 92.752 686.6 93.2 686.6H94.8C95.248 686.6 95.6 686.952 95.6 687.4C95.6 687.848 95.248 688.2 94.8 688.2ZM94.8 685H93.2C92.752 685 92.4 684.648 92.4 684.2C92.4 683.752 92.752 683.4 93.2 683.4H94.8C95.248 683.4 95.6 683.752 95.6 684.2C95.6 684.648 95.248 685 94.8 685ZM99.6 691.4H98C97.552 691.4 97.2 691.048 97.2 690.6C97.2 690.152 97.552 689.8 98 689.8H99.6C100.048 689.8 100.4 690.152 100.4 690.6C100.4 691.048 100.048 691.4 99.6 691.4ZM99.6 688.2H98C97.552 688.2 97.2 687.848 97.2 687.4C97.2 686.952 97.552 686.6 98 686.6H99.6C100.048 686.6 100.4 686.952 100.4 687.4C100.4 687.848 100.048 688.2 99.6 688.2ZM99.6 685H98C97.552 685 97.2 684.648 97.2 684.2C97.2 683.752 97.552 683.4 98 683.4H99.6C100.048 683.4 100.4 683.752 100.4 684.2C100.4 684.648 100.048 685 99.6 685Z" fill="#1C1C1E"/>
<path fill-rule="evenodd" clip-rule="evenodd" d="M34.4614 749C33.8086 749 33.1825 749.259 32.7209 749.721C32.2593 750.183 32 750.809 32 751.462V778.538C32 779.191 32.2593 779.817 32.7209 780.279C33.1825 780.741 33.8086 781 34.4614 781H52.9216C53.248 781 53.5611 780.87 53.7919 780.64C54.0227 780.409 54.1523 780.096 54.1523 779.769C54.1523 779.443 54.0227 779.13 53.7919 778.899C53.5611 778.668 53.248 778.538 52.9216 778.538H34.4614V751.462H52.9216C53.248 751.462 53.5611 751.332 53.7919 751.101C54.0227 750.87 54.1523 750.557 54.1523 750.231C54.1523 749.904 54.0227 749.591 53.7919 749.36C53.5611 749.13 53.248 749 52.9216 749H34.4614ZM58.1004 758.59C57.8693 758.359 57.5558 758.229 57.229 758.229C56.9022 758.229 56.5888 758.359 56.3577 758.59C56.1266 758.821 55.9968 759.135 55.9968 759.462C55.9968 759.788 56.1266 760.102 56.3577 760.333L59.7962 763.769H43.0762C42.7498 763.769 42.4367 763.899 42.2059 764.13C41.9751 764.361 41.8455 764.674 41.8455 765C41.8455 765.326 41.9751 765.639 42.2059 765.87C42.4367 766.101 42.7498 766.231 43.0762 766.231H59.7962L56.3577 769.667C56.1266 769.898 55.9968 770.212 55.9968 770.538C55.9968 770.865 56.1266 771.179 56.3577 771.41C56.5888 771.641 56.9022 771.771 57.229 771.771C57.5558 771.771 57.8693 771.641 58.1004 771.41L63.6384 765.871C63.7531 765.757 63.844 765.621 63.906 765.472C63.9681 765.322 64 765.162 64 765C64 764.838 63.9681 764.678 63.906 764.528C63.844 764.379 63.7531 764.243 63.6384 764.129L58.1004 758.59Z" fill="black"/>
<path d="M91.18 764.72C92.0733 764.96 92.7533 765.373 93.22 765.96C93.6867 766.533 93.92 767.253 93.92 768.12C93.92 769.347 93.4667 770.3 92.56 770.98C91.6533 771.66 90.34 772 88.62 772H81.98V758H88.24C89.8133 758 91.04 758.313 91.92 758.94C92.8 759.567 93.24 760.453 93.24 761.6C93.24 762.333 93.06 762.967 92.7 763.5C92.3533 764.033 91.8467 764.44 91.18 764.72ZM84.54 763.98H88.02C88.86 763.98 89.5 763.813 89.94 763.48C90.38 763.147 90.6 762.653 90.6 762C90.6 761.347 90.38 760.853 89.94 760.52C89.5 760.173 88.86 760 88.02 760H84.54V763.98ZM88.54 770C90.38 770 91.3 769.307 91.3 767.92C91.3 766.56 90.38 765.88 88.54 765.88H84.54V770H88.54ZM101.802 764.84C103.162 764.84 104.202 765.147 104.922 765.76C105.642 766.373 106.002 767.24 106.002 768.36C106.002 769.533 105.602 770.44 104.802 771.08C104.015 771.72 102.895 772.033 101.442 772.02L96.6019 772V761.32H99.1019V764.82L101.802 764.84ZM107.382 761.32H109.882V772H107.382V761.32ZM101.222 770.18C101.955 770.193 102.515 770.04 102.902 769.72C103.289 769.4 103.482 768.933 103.482 768.32C103.482 767.72 103.295 767.28 102.922 767C102.549 766.72 101.982 766.573 101.222 766.56L99.1019 766.54V770.16L101.222 770.18ZM119.923 772L117.183 768.3L114.423 772H111.663L115.823 766.58L111.843 761.32H114.623L117.243 764.82L119.863 761.32H122.563L118.563 766.54L122.743 772H119.923ZM128.94 772.14C127.86 772.14 126.887 771.907 126.02 771.44C125.153 770.973 124.473 770.327 123.98 769.5C123.5 768.66 123.26 767.713 123.26 766.66C123.26 765.607 123.5 764.667 123.98 763.84C124.473 763.013 125.153 762.367 126.02 761.9C126.887 761.433 127.86 761.2 128.94 761.2C130.033 761.2 131.013 761.433 131.88 761.9C132.747 762.367 133.42 763.013 133.9 763.84C134.393 764.667 134.64 765.607 134.64 766.66C134.64 767.713 134.393 768.66 133.9 769.5C133.42 770.327 132.747 770.973 131.88 771.44C131.013 771.907 130.033 772.14 128.94 772.14ZM128.94 770C129.86 770 130.62 769.693 131.22 769.08C131.82 768.467 132.12 767.66 132.12 766.66C132.12 765.66 131.82 764.853 131.22 764.24C130.62 763.627 129.86 763.32 128.94 763.32C128.02 763.32 127.26 763.627 126.66 764.24C126.073 764.853 125.78 765.66 125.78 766.66C125.78 767.66 126.073 768.467 126.66 769.08C127.26 769.693 128.02 770 128.94 770ZM148.393 769.88V774.38H146.053V772H137.812V774.38H135.493V769.88H135.993C136.673 769.853 137.133 769.42 137.373 768.58C137.626 767.727 137.793 766.527 137.873 764.98L138.013 761.32H146.813V769.88H148.393ZM140.153 765.16C140.099 766.387 139.999 767.387 139.853 768.16C139.706 768.933 139.439 769.507 139.053 769.88H144.313V763.44H140.213L140.153 765.16Z" fill="black"/>
<rect x="297" y="154" width="6" height="37" rx="3" fill="#4F27BF"/>
<path d="M94.36 166V180H91.8V168.2H84.54V180H81.98V166H94.36ZM102.788 180.14C101.708 180.14 100.734 179.907 99.8677 179.44C99.001 178.973 98.321 178.327 97.8277 177.5C97.3477 176.66 97.1077 175.713 97.1077 174.66C97.1077 173.607 97.3477 172.667 97.8277 171.84C98.321 171.013 99.001 170.367 99.8677 169.9C100.734 169.433 101.708 169.2 102.788 169.2C103.881 169.2 104.861 169.433 105.728 169.9C106.594 170.367 107.268 171.013 107.748 171.84C108.241 172.667 108.488 173.607 108.488 174.66C108.488 175.713 108.241 176.66 107.748 177.5C107.268 178.327 106.594 178.973 105.728 179.44C104.861 179.907 103.881 180.14 102.788 180.14ZM102.788 178C103.708 178 104.468 177.693 105.068 177.08C105.668 176.467 105.968 175.66 105.968 174.66C105.968 173.66 105.668 172.853 105.068 172.24C104.468 171.627 103.708 171.32 102.788 171.32C101.868 171.32 101.108 171.627 100.508 172.24C99.921 172.853 99.6277 173.66 99.6277 174.66C99.6277 175.66 99.921 176.467 100.508 177.08C101.108 177.693 101.868 178 102.788 178ZM110.957 169.32H113.457V176.36L119.357 169.32H121.637V180H119.137V172.96L113.257 180H110.957V169.32ZM129.86 180.14C128.754 180.14 127.76 179.907 126.88 179.44C126 178.973 125.314 178.327 124.82 177.5C124.327 176.66 124.08 175.713 124.08 174.66C124.08 173.607 124.327 172.667 124.82 171.84C125.314 171.013 125.994 170.367 126.86 169.9C127.74 169.433 128.74 169.2 129.86 169.2C130.914 169.2 131.834 169.413 132.62 169.84C133.42 170.267 134.02 170.88 134.42 171.68L132.5 172.8C132.194 172.307 131.807 171.94 131.34 171.7C130.887 171.447 130.387 171.32 129.84 171.32C128.907 171.32 128.134 171.627 127.52 172.24C126.907 172.84 126.6 173.647 126.6 174.66C126.6 175.673 126.9 176.487 127.5 177.1C128.114 177.7 128.894 178 129.84 178C130.387 178 130.887 177.88 131.34 177.64C131.807 177.387 132.194 177.013 132.5 176.52L134.42 177.64C134.007 178.44 133.4 179.06 132.6 179.5C131.814 179.927 130.9 180.14 129.86 180.14ZM141.061 175.72H139.121V180H136.621V169.32H139.121V173.64H141.121L144.281 169.32H146.961L143.081 174.46L147.221 180H144.281L141.061 175.72ZM158.492 169.2C160.065 169.2 161.265 169.58 162.092 170.34C162.932 171.087 163.352 172.22 163.352 173.74V180H160.992V178.7C160.685 179.167 160.245 179.527 159.672 179.78C159.112 180.02 158.432 180.14 157.632 180.14C156.832 180.14 156.132 180.007 155.532 179.74C154.932 179.46 154.465 179.08 154.132 178.6C153.812 178.107 153.652 177.553 153.652 176.94C153.652 175.98 154.005 175.213 154.712 174.64C155.432 174.053 156.559 173.76 158.092 173.76H160.852V173.6C160.852 172.853 160.625 172.28 160.172 171.88C159.732 171.48 159.072 171.28 158.192 171.28C157.592 171.28 156.999 171.373 156.412 171.56C155.839 171.747 155.352 172.007 154.952 172.34L153.972 170.52C154.532 170.093 155.205 169.767 155.992 169.54C156.779 169.313 157.612 169.2 158.492 169.2ZM158.152 178.32C158.779 178.32 159.332 178.18 159.812 177.9C160.305 177.607 160.652 177.193 160.852 176.66V175.42H158.272C156.832 175.42 156.112 175.893 156.112 176.84C156.112 177.293 156.292 177.653 156.652 177.92C157.012 178.187 157.512 178.32 158.152 178.32ZM177.846 177.88V182.38H175.506V180H167.266V182.38H164.946V177.88H165.446C166.126 177.853 166.586 177.42 166.826 176.58C167.079 175.727 167.246 174.527 167.326 172.98L167.466 169.32H176.266V177.88H177.846ZM169.606 173.16C169.552 174.387 169.452 175.387 169.306 176.16C169.159 176.933 168.892 177.507 168.506 177.88H173.766V171.44H169.666L169.606 173.16ZM185.998 169.2C187.038 169.2 187.965 169.427 188.778 169.88C189.605 170.333 190.252 170.973 190.718 171.8C191.185 172.627 191.418 173.58 191.418 174.66C191.418 175.74 191.185 176.7 190.718 177.54C190.252 178.367 189.605 179.007 188.778 179.46C187.965 179.913 187.038 180.14 185.998 180.14C184.558 180.14 183.418 179.66 182.578 178.7V183.88H180.078V169.32H182.458V170.72C182.872 170.213 183.378 169.833 183.978 169.58C184.592 169.327 185.265 169.2 185.998 169.2ZM185.718 178C186.638 178 187.392 177.693 187.978 177.08C188.578 176.467 188.878 175.66 188.878 174.66C188.878 173.66 188.578 172.853 187.978 172.24C187.392 171.627 186.638 171.32 185.718 171.32C185.118 171.32 184.578 171.46 184.098 171.74C183.618 172.007 183.238 172.393 182.958 172.9C182.678 173.407 182.538 173.993 182.538 174.66C182.538 175.327 182.678 175.913 182.958 176.42C183.238 176.927 183.618 177.32 184.098 177.6C184.578 177.867 185.118 178 185.718 178ZM203.907 174.72C203.907 174.893 203.893 175.14 203.867 175.46H195.487C195.633 176.247 196.013 176.873 196.627 177.34C197.253 177.793 198.027 178.02 198.947 178.02C200.12 178.02 201.087 177.633 201.847 176.86L203.187 178.4C202.707 178.973 202.1 179.407 201.367 179.7C200.633 179.993 199.807 180.14 198.887 180.14C197.713 180.14 196.68 179.907 195.787 179.44C194.893 178.973 194.2 178.327 193.707 177.5C193.227 176.66 192.987 175.713 192.987 174.66C192.987 173.62 193.22 172.687 193.687 171.86C194.167 171.02 194.827 170.367 195.667 169.9C196.507 169.433 197.453 169.2 198.507 169.2C199.547 169.2 200.473 169.433 201.287 169.9C202.113 170.353 202.753 171 203.207 171.84C203.673 172.667 203.907 173.627 203.907 174.72ZM198.507 171.2C197.707 171.2 197.027 171.44 196.467 171.92C195.92 172.387 195.587 173.013 195.467 173.8H201.527C201.42 173.027 201.093 172.4 200.547 171.92C200 171.44 199.32 171.2 198.507 171.2ZM211.501 180.14C210.394 180.14 209.401 179.907 208.521 179.44C207.641 178.973 206.954 178.327 206.461 177.5C205.968 176.66 205.721 175.713 205.721 174.66C205.721 173.607 205.968 172.667 206.461 171.84C206.954 171.013 207.634 170.367 208.501 169.9C209.381 169.433 210.381 169.2 211.501 169.2C212.554 169.2 213.474 169.413 214.261 169.84C215.061 170.267 215.661 170.88 216.061 171.68L214.141 172.8C213.834 172.307 213.448 171.94 212.981 171.7C212.528 171.447 212.028 171.32 211.481 171.32C210.548 171.32 209.774 171.627 209.161 172.24C208.548 172.84 208.241 173.647 208.241 174.66C208.241 175.673 208.541 176.487 209.141 177.1C209.754 177.7 210.534 178 211.481 178C212.028 178 212.528 177.88 212.981 177.64C213.448 177.387 213.834 177.013 214.141 176.52L216.061 177.64C215.648 178.44 215.041 179.06 214.241 179.5C213.454 179.927 212.541 180.14 211.501 180.14ZM222.866 180.14C221.786 180.14 220.812 179.907 219.946 179.44C219.079 178.973 218.399 178.327 217.906 177.5C217.426 176.66 217.186 175.713 217.186 174.66C217.186 173.607 217.426 172.667 217.906 171.84C218.399 171.013 219.079 170.367 219.946 169.9C220.812 169.433 221.786 169.2 222.866 169.2C223.959 169.2 224.939 169.433 225.806 169.9C226.672 170.367 227.346 171.013 227.826 171.84C228.319 172.667 228.566 173.607 228.566 174.66C228.566 175.713 228.319 176.66 227.826 177.5C227.346 178.327 226.672 178.973 225.806 179.44C224.939 179.907 223.959 180.14 222.866 180.14ZM222.866 178C223.786 178 224.546 177.693 225.146 177.08C225.746 176.467 226.046 175.66 226.046 174.66C226.046 173.66 225.746 172.853 225.146 172.24C224.546 171.627 223.786 171.32 222.866 171.32C221.946 171.32 221.186 171.627 220.586 172.24C219.999 172.853 219.706 173.66 219.706 174.66C219.706 175.66 219.999 176.467 220.586 177.08C221.186 177.693 221.946 178 222.866 178ZM238.775 174.44C240.095 174.84 240.755 175.693 240.755 177C240.755 177.96 240.395 178.7 239.675 179.22C238.955 179.74 237.889 180 236.475 180H231.035V169.32H236.255C237.562 169.32 238.582 169.56 239.315 170.04C240.049 170.52 240.415 171.2 240.415 172.08C240.415 172.627 240.269 173.1 239.975 173.5C239.695 173.9 239.295 174.213 238.775 174.44ZM233.415 173.78H236.035C237.329 173.78 237.975 173.333 237.975 172.44C237.975 171.573 237.329 171.14 236.035 171.14H233.415V173.78ZM236.275 178.18C237.649 178.18 238.335 177.733 238.335 176.84C238.335 176.373 238.175 176.027 237.855 175.8C237.535 175.56 237.035 175.44 236.355 175.44H233.415V178.18H236.275Z" fill="#1C1C1E"/>
<path d="M63.9039 186.7L53.5159 176.312C55.1279 174.228 55.9999 171.68 55.9999 169C55.9999 165.792 54.7479 162.784 52.4839 160.516C50.2199 158.248 47.2039 157 43.9999 157C40.796 157 37.78 158.252 35.516 160.516C33.248 162.78 32 165.792 32 169C32 172.204 33.252 175.22 35.516 177.484C37.78 179.752 40.792 181 43.9999 181C46.6799 181 49.2239 180.128 51.3079 178.52L61.6959 188.904C61.7263 188.934 61.7625 188.959 61.8023 188.975C61.8421 188.992 61.8848 189 61.9279 189C61.971 189 62.0136 188.992 62.0534 188.975C62.0932 188.959 62.1294 188.934 62.1599 188.904L63.9039 187.164C63.9343 187.133 63.9585 187.097 63.975 187.057C63.9915 187.018 64 186.975 64 186.932C64 186.889 63.9915 186.846 63.975 186.806C63.9585 186.766 63.9343 186.73 63.9039 186.7V186.7ZM50.3359 175.336C48.6399 177.028 46.3919 177.96 43.9999 177.96C41.608 177.96 39.36 177.028 37.664 175.336C35.972 173.64 35.04 171.392 35.04 169C35.04 166.608 35.972 164.356 37.664 162.664C39.36 160.972 41.608 160.04 43.9999 160.04C46.3919 160.04 48.6439 160.968 50.3359 162.664C52.0279 164.36 52.9599 166.608 52.9599 169C52.9599 171.392 52.0279 173.644 50.3359 175.336Z" fill="black"/>
</g>
<defs>
<filter id="filter0_d_1_66" x="-5" y="0" width="310" height="954" filterUnits="userSpaceOnUse" color-interpolation-filters="sRGB">
<feFlood flood-opacity="0" result="BackgroundImageFix"/>
<feColorMatrix in="SourceAlpha" type="matrix" values="0 0 0 0 0 0 0 0 0 0 0 0 0 0 0 0 0 0 127 0" result="hardAlpha"/>
<feOffset/>
<feGaussianBlur stdDeviation="2.5"/>
<feComposite in2="hardAlpha" operator="out"/>
<feColorMatrix type="matrix" values="0 0 0 0 0.00749999 0 0 0 0 0 0 0 0 0 0.375 0 0 0 0.25 0"/>
<feBlend mode="normal" in2="BackgroundImageFix" result="effect1_dropShadow_1_66"/>
<feBlend mode="normal" in="SourceGraphic" in2="effect1_dropShadow_1_66" result="shape"/>
</filter>
<clipPath id="clip0_1_66">
<rect width="300" height="944" fill="white" transform="translate(0 5)"/>
</clipPath>
<clipPath id="clip1_1_66">
<rect width="32" height="32" fill="white" transform="translate(32 229)"/>
</clipPath>
</defs>
</svg>
